<mxfile host="app.diagrams.net" agent="Mozilla/5.0 (Windows NT 10.0; Win64; x64) AppleWebKit/537.36 (KHTML, like Gecko) Chrome/131.0.0.0 Safari/537.36 Edg/131.0.0.0" version="25.0.3">
  <diagram name="Page-1" id="BFsWZsMjRjLBfDCsQAaC">
    <mxGraphModel dx="1042" dy="535" grid="1" gridSize="10" guides="1" tooltips="1" connect="1" arrows="1" fold="1" page="1" pageScale="1" pageWidth="850" pageHeight="1100" math="0" shadow="0">
      <root>
        <mxCell id="0" />
        <mxCell id="1" parent="0" />
        <mxCell id="nlrIIv_CDw842UZPordQ-1" value="" style="ellipse;whiteSpace=wrap;html=1;fillColor=#000033;" vertex="1" parent="1">
          <mxGeometry x="270" width="120" height="80" as="geometry" />
        </mxCell>
        <mxCell id="nlrIIv_CDw842UZPordQ-2" value="" style="ellipse;whiteSpace=wrap;html=1;fillColor=#000033;" vertex="1" parent="1">
          <mxGeometry x="270" y="380" width="120" height="80" as="geometry" />
        </mxCell>
        <mxCell id="nlrIIv_CDw842UZPordQ-3" value="&lt;font color=&quot;#ffffff&quot;&gt;Start&lt;/font&gt;" style="text;strokeColor=none;align=center;fillColor=none;html=1;verticalAlign=middle;whiteSpace=wrap;rounded=0;" vertex="1" parent="1">
          <mxGeometry x="300" y="25" width="60" height="30" as="geometry" />
        </mxCell>
        <mxCell id="nlrIIv_CDw842UZPordQ-4" value="&lt;font color=&quot;#ffffff&quot;&gt;End&lt;/font&gt;" style="text;strokeColor=none;align=center;fillColor=none;html=1;verticalAlign=middle;whiteSpace=wrap;rounded=0;" vertex="1" parent="1">
          <mxGeometry x="300" y="400" width="60" height="35" as="geometry" />
        </mxCell>
        <mxCell id="nlrIIv_CDw842UZPordQ-13" style="edgeStyle=orthogonalEdgeStyle;rounded=0;orthogonalLoop=1;jettySize=auto;html=1;exitX=0.5;exitY=1;exitDx=0;exitDy=0;entryX=0.5;entryY=0;entryDx=0;entryDy=0;" edge="1" parent="1" source="nlrIIv_CDw842UZPordQ-5" target="nlrIIv_CDw842UZPordQ-10">
          <mxGeometry relative="1" as="geometry" />
        </mxCell>
        <mxCell id="nlrIIv_CDw842UZPordQ-5" value="" style="shape=parallelogram;perimeter=parallelogramPerimeter;whiteSpace=wrap;html=1;fixedSize=1;fillColor=#000000;" vertex="1" parent="1">
          <mxGeometry x="250" y="130" width="140" height="60" as="geometry" />
        </mxCell>
        <mxCell id="nlrIIv_CDw842UZPordQ-7" value="&lt;font color=&quot;#ffffff&quot;&gt;Nhập a, b&lt;br&gt;Nhập phép tính&lt;/font&gt;" style="text;strokeColor=none;align=center;fillColor=none;html=1;verticalAlign=middle;whiteSpace=wrap;rounded=0;" vertex="1" parent="1">
          <mxGeometry x="275" y="145" width="90" height="30" as="geometry" />
        </mxCell>
        <mxCell id="nlrIIv_CDw842UZPordQ-10" value="" style="rounded=0;whiteSpace=wrap;html=1;strokeColor=default;fillColor=#000033;" vertex="1" parent="1">
          <mxGeometry x="260" y="250" width="120" height="60" as="geometry" />
        </mxCell>
        <mxCell id="nlrIIv_CDw842UZPordQ-11" value="&lt;font color=&quot;#ffffff&quot;&gt;In ra:&lt;br&gt;a (phép tình) b&lt;/font&gt;" style="text;strokeColor=none;align=center;fillColor=none;html=1;verticalAlign=middle;whiteSpace=wrap;rounded=0;" vertex="1" parent="1">
          <mxGeometry x="275" y="265" width="90" height="30" as="geometry" />
        </mxCell>
        <mxCell id="nlrIIv_CDw842UZPordQ-12" style="edgeStyle=orthogonalEdgeStyle;rounded=0;orthogonalLoop=1;jettySize=auto;html=1;exitX=0.5;exitY=1;exitDx=0;exitDy=0;entryX=0.571;entryY=0.04;entryDx=0;entryDy=0;entryPerimeter=0;" edge="1" parent="1" source="nlrIIv_CDw842UZPordQ-1" target="nlrIIv_CDw842UZPordQ-5">
          <mxGeometry relative="1" as="geometry" />
        </mxCell>
        <mxCell id="nlrIIv_CDw842UZPordQ-14" style="edgeStyle=orthogonalEdgeStyle;rounded=0;orthogonalLoop=1;jettySize=auto;html=1;entryX=0.417;entryY=0;entryDx=0;entryDy=0;entryPerimeter=0;" edge="1" parent="1" source="nlrIIv_CDw842UZPordQ-11" target="nlrIIv_CDw842UZPordQ-2">
          <mxGeometry relative="1" as="geometry" />
        </mxCell>
      </root>
    </mxGraphModel>
  </diagram>
</mxfile>
